# xmcd CD database file
#
# Track frame offsets:
#	150
#	14603
#	29284
#	43991
#	62188
#	82604
#	97070
#	111061
#	127747
#	139896
#	152514
#	166327
#
# Disc length: 2448 seconds
#
# Revision: 0
# Processed by: cddbd v1.5.1PL0 Copyright (c) Steve Scherf et al.
# Submitted via: CDex 1.50
#
DISCID=95098e0c
DTITLE=George Royter - George Royter
DYEAR=2005
DGENRE=Country
TTITLE0=Old Time Family Dance
TTITLE1=The Saturday Dance
TTITLE2=You Kids Have Got It Easy
TTITLE3=The Chook Farmers Ball
TTITLE4=Sleeper Cutters
TTITLE5=People in the Street
TTITLE6=Here with You
TTITLE7=How Many Tears
TTITLE8=The Lawrence Frost
TTITLE9=Rusho
TTITLE10=A Tale to Tell
TTITLE11=Dust on the Violin
EXTD=YEAR: 2005
EXTT0=
EXTT1=
EXTT2=
EXTT3=
EXTT4=
EXTT5=
EXTT6=
EXTT7=
EXTT8=
EXTT9=
EXTT10=
EXTT11=
PLAYORDER=
